<svg width="100" height="100" viewBox="0 0 100 100" fill="none" xmlns="http://www.w3.org/2000/svg">
<path d="M48.0979 23.3541C48.6966 21.5115 51.3034 21.5115 51.9021 23.3541L58.0825 42.3754C58.3503 43.1994 59.1182 43.7574 59.9846 43.7574H79.9848C81.9222 43.7574 82.7278 46.2366 81.1604 47.3754L64.9799 59.1312C64.2789 59.6405 63.9856 60.5432 64.2533 61.3673L70.4337 80.3886C71.0324 82.2312 68.9235 83.7634 67.356 82.6246L51.1756 70.8688C50.4746 70.3595 49.5254 70.3595 48.8244 70.8688L32.644 82.6246C31.0765 83.7634 28.9676 82.2312 29.5663 80.3885L35.7467 61.3673C36.0144 60.5432 35.7211 59.6405 35.0201 59.1312L18.8396 47.3754C17.2722 46.2366 18.0778 43.7574 20.0152 43.7574H40.0154C40.8818 43.7574 41.6497 43.1994 41.9175 42.3754L48.0979 23.3541Z" fill="black"/>
<path d="M15 52.5H4M28 36L11.5 25M37 27L26.5 9M61 28.5L74 10.5M71.5 36L85.5 25M84 52.5H95.5M50 13V7" stroke="#FF7A00" stroke-width="3" stroke-linecap="round"/>
</svg>
