<svg width="100" height="100" viewBox="0 0 100 100" fill="none" xmlns="http://www.w3.org/2000/svg">
<path d="M15.4999 78C7.49988 80.5 6.49988 69 10.4999 67.5C15.6998 65.9 19.6666 69.1667 21 71C21.8333 72.5 21.8999 76 15.4999 78Z" fill="black"/>
<path d="M83.8951 77.9282C91.8951 80.4282 92.8951 68.9282 88.8951 67.4282C83.6952 65.8282 79.7284 69.0949 78.395 70.9282C77.5617 72.4282 77.4951 75.9282 83.8951 77.9282Z" fill="black"/>
<path d="M16.8742 51.543C9.23657 49.8353 6.67639 60.261 12.3731 62.4512L84.2647 78.067C76.871 75.2682 82.2166 65.6846 89.3717 67.5233C71.6729 62.6496 24.5119 53.2506 16.8742 51.543Z" fill="#FF7A00"/>
<path d="M82.6023 51.543C90.24 49.8353 92.8002 60.261 87.1034 62.4512L15.2119 78.067C22.6056 75.2682 17.2599 65.6846 10.1049 67.5233C27.8037 62.6496 74.9647 53.2506 82.6023 51.543Z" fill="#FF7A00"/>
<path d="M27.4999 44C30.4999 51.5 40.5007 55.4907 49.9999 54C56.2208 53.0238 59.9097 50.7877 64 46C71.8637 36.7955 66 20 59.5 12C61.5 18.8 59.5 19 58 20C57 16 57 14.5 48 5C49.6 7.8 47.6667 18.1667 47.5 20C44.3 18.8 42 9.5 44 3C36.5 8.5 36.8333 22.1667 37.5 29.5C34.7 26.3 34.3333 18.1667 34.5 14.5C31.7 18.9 30 30.3333 29.4999 35.5C28.2999 33.5 28.9999 27.6667 29.4999 25C27.8333 28.8333 25.0999 38 27.4999 44Z" fill="#FF7A00"/>
<path d="M38.0072 47C36.5072 46 35.0072 41 36.5072 33.5C36.5072 36.3 40.5071 38 42.5071 38.5C39.7071 35.3 41.3404 28.5 42.5071 25.5C42.1071 34.3 48.0071 36.5 51.0071 36.5C54.6071 32.9 54.8404 23.3333 54.5071 19C58.5071 23.8 58.5071 34 58.0071 38.5C62.4071 35.7 64.1737 27.3333 64.5071 23.5C72.1071 45.9 54.3405 53.1667 44.5072 54C32.5072 54.4 29.8405 44.8333 30.0072 40C30.8072 45.2 35.6739 46.8333 38.0072 47Z" fill="black"/>
</svg>
