<svg width="100" height="100" viewBox="0 0 100 100" fill="none" xmlns="http://www.w3.org/2000/svg">
<path d="M22.9999 77.5C6.49988 67 36.9999 40 45.9999 29.5H49C53.3333 31.6667 63.3 37.5 68.5 43.5C75 51 82.5 75 74.5 79.5C66.5 84 39.4999 88 22.9999 77.5Z" fill="#FF7A00"/>
<path d="M37.5 20L45 33.5L50.5 36L54.5 21L56 14.5L49 20L46.5 12L42 21L37.5 20Z" fill="#FF7A00"/>
<path d="M52 30C48.5 28.5001 43.5 30.5 43.5 30.5C37.3333 27.8334 24.6 25 23 33M52.5 31C49 29.5001 44 31.5 44 31.5" stroke="black"/>
<path d="M50.2727 72.9091V43.8182H52.1364V72.9091H50.2727ZM56.5455 52.5455C56.4091 51.3939 55.8561 50.5 54.8864 49.8636C53.9167 49.2273 52.7273 48.9091 51.3182 48.9091C50.2879 48.9091 49.3864 49.0758 48.6136 49.4091C47.8485 49.7424 47.25 50.2008 46.8182 50.7841C46.3939 51.3674 46.1818 52.0303 46.1818 52.7727C46.1818 53.3939 46.3295 53.928 46.625 54.375C46.928 54.8144 47.3144 55.1818 47.7841 55.4773C48.2538 55.7652 48.7462 56.0038 49.2614 56.1932C49.7765 56.375 50.25 56.5227 50.6818 56.6364L53.0455 57.2727C53.6515 57.4318 54.3258 57.6515 55.0682 57.9318C55.8182 58.2121 56.5341 58.5947 57.2159 59.0795C57.9053 59.5568 58.4735 60.1705 58.9205 60.9205C59.3674 61.6705 59.5909 62.5909 59.5909 63.6818C59.5909 64.9394 59.2614 66.0758 58.6023 67.0909C57.9508 68.1061 56.9962 68.9129 55.7386 69.5114C54.4886 70.1098 52.9697 70.4091 51.1818 70.4091C49.5152 70.4091 48.072 70.1402 46.8523 69.6023C45.6402 69.0644 44.6856 68.3144 43.9886 67.3523C43.2992 66.3902 42.9091 65.2727 42.8182 64H45.7273C45.803 64.8788 46.0985 65.6061 46.6136 66.1818C47.1364 66.75 47.7955 67.1742 48.5909 67.4545C49.3939 67.7273 50.2576 67.8636 51.1818 67.8636C52.2576 67.8636 53.2235 67.6894 54.0795 67.3409C54.9356 66.9848 55.6136 66.4924 56.1136 65.8636C56.6136 65.2273 56.8636 64.4848 56.8636 63.6364C56.8636 62.8636 56.6477 62.2348 56.2159 61.75C55.7841 61.2652 55.2159 60.8712 54.5114 60.5682C53.8068 60.2652 53.0455 60 52.2273 59.7727L49.3636 58.9545C47.5455 58.4318 46.1061 57.6856 45.0455 56.7159C43.9848 55.7462 43.4545 54.4773 43.4545 52.9091C43.4545 51.6061 43.8068 50.4697 44.5114 49.5C45.2235 48.5227 46.178 47.7652 47.375 47.2273C48.5795 46.6818 49.9242 46.4091 51.4091 46.4091C52.9091 46.4091 54.2424 46.678 55.4091 47.2159C56.5758 47.7462 57.5 48.4735 58.1818 49.3977C58.8712 50.322 59.2348 51.3712 59.2727 52.5455H56.5455Z" fill="black"/>
</svg>
