<svg width="951" height="443" viewBox="0 0 951 443" fill="none" xmlns="http://www.w3.org/2000/svg">
<style>
.LeafButton * {
  overflow: visible;
    opacity: 0.5;
    fill: white;
}
</style>
<g class="LeafButton" clip-path="url(#clip0_19_3474)">
<path d="M180.919 150.194C170.355 155.528 161.173 163.494 152.401 172.121C143.562 180.832 135.168 190.238 125.954 199.04C116.752 207.845 106.807 215.906 95.315 221.409C84.1063 226.797 71.5605 229.311 59.1903 227.555C51.6192 226.538 44.2077 224.503 36.966 222.032C47.9369 227.62 59.612 232.132 71.7041 235.615C70.2218 234.863 68.7326 234.141 67.2244 233.512C66.6484 233.281 66.9015 232.241 67.4785 232.473C70.5941 233.781 73.7435 234.836 76.7884 236.408C77.5091 236.769 78.2135 237.17 78.9236 237.567C81.6498 238.252 84.3942 238.88 87.1515 239.465C83.8646 237.253 80.4554 235.358 77.03 233.576C76.3213 233.227 76.8977 232.065 77.599 232.379C81.6681 234.291 85.6809 236.185 89.5085 238.843C90.2874 239.343 91.0513 239.875 91.8125 240.414C94.5545 240.938 97.314 241.396 100.084 241.817C97.2697 239.886 94.5815 237.715 91.8764 235.74C91.3141 235.319 91.9921 234.43 92.5508 234.811C95.5912 236.849 98.7371 238.87 101.906 240.801L104.526 242.473C107.419 242.883 110.322 243.212 113.229 243.535C111.87 242.366 110.5 241.223 109.071 240.191C105.153 237.196 101.079 234.486 96.969 232.101C96.4709 231.816 96.8164 230.902 97.3219 231.186L97.5024 231.286C101.648 233.592 105.746 235.871 109.726 238.762C112.032 240.372 114.387 242.093 116.654 243.941C118.847 244.159 121.048 244.301 123.248 244.479C118.062 240.247 112.892 236.113 107.6 232.453C107.074 232.076 107.654 231.184 108.179 231.56C114.268 235.821 120.534 240.086 126.673 244.756C128.779 244.899 130.884 245.013 132.989 245.118L130.325 242.879C127.648 240.645 125.105 238.18 122.563 235.817C122.135 235.415 122.574 234.591 123.064 234.97C125.818 237.13 128.562 239.281 131.328 241.444L135.506 244.891L135.936 245.25C138.206 245.347 140.471 245.458 142.744 245.513L142.289 245.094C140.939 243.897 139.576 242.733 138.194 241.607L137.918 241.379C135.244 239.172 132.533 236.935 129.74 235.025C129.23 234.672 129.731 233.788 130.241 234.14C133.22 236.176 136.215 238.282 139.152 240.507C140.598 241.603 142.027 242.747 143.452 243.914L145.388 245.547C147.097 245.575 148.8 245.598 150.503 245.612C149.654 244.979 148.813 244.337 147.987 243.69C145.799 241.963 143.716 240.07 141.607 238.29C141.152 237.899 141.766 237.031 142.225 237.408C144.342 239.141 146.576 240.782 148.835 242.328L152.297 244.698C152.755 245.018 153.25 245.328 153.736 245.648C155.015 245.652 156.294 245.608 157.574 245.593C157.011 245.199 156.443 244.81 155.89 244.398L149.61 239.796C148.899 239.278 149.528 238.001 150.272 238.513L156.765 242.941L159.996 245.071L160.71 245.546C161.975 245.527 163.241 245.516 164.506 245.487C159.93 242.922 155.691 239.5 151.636 235.819C142.511 227.622 134.292 218.248 124.186 214.368C123.271 214.014 123.741 212.38 124.658 212.691C135.008 216.112 143.417 224.156 152.501 231.658C159.094 237.162 166.049 242.357 174.063 245.147C174.495 245.129 174.933 245.116 175.365 245.098C171.525 242.825 167.857 240.238 164.415 237.656C157.604 232.571 151.465 226.786 145.5 220.955C144.968 220.424 145.719 219.596 146.255 220.084C152.383 225.573 158.865 230.914 165.688 235.825C169.022 238.221 172.458 240.473 176.022 242.573C177.44 243.393 178.884 244.136 180.343 244.865C182.26 244.762 184.172 244.636 186.089 244.514C180.54 241.197 175.19 237.499 170.112 233.74C162.07 227.832 154.698 221.21 147.711 214.387C147.212 213.897 147.921 213.056 148.422 213.538C155.492 220.441 163.413 226.705 171.676 232.421C177.804 236.71 184.293 240.414 190.797 244.225C192.146 244.129 193.494 244.023 194.837 243.921C194.232 243.514 193.636 243.117 193.055 242.742C190.421 241.057 187.824 239.372 185.273 237.582C180.108 233.97 175.248 230.032 170.479 225.999C169.92 225.525 170.632 224.66 171.191 225.105C176.062 229.08 181.267 232.583 186.501 236.161C189.08 237.875 191.69 239.546 194.342 241.184C195.689 242.019 197.186 242.785 198.632 243.622C200.483 243.473 202.343 243.343 204.203 243.185C204.382 243.172 204.565 243.145 204.743 243.132C204.138 242.725 203.537 242.314 202.942 241.916C200.034 239.968 197.169 238.015 194.367 235.928C188.597 231.679 183.113 227.076 177.873 222.257C177.355 221.778 178.021 220.942 178.547 221.393C183.881 225.942 189.477 230.199 195.239 234.293C198.258 236.441 201.328 238.499 204.453 240.518C205.663 241.303 206.905 242.046 208.143 242.794C210.674 242.561 213.2 242.296 215.73 242.045C214.367 241.121 212.999 240.192 211.668 239.235C209.893 237.961 208.151 236.645 206.459 235.276C204.81 233.92 203.289 232.411 201.654 231.069C201.167 230.674 201.749 229.905 202.232 230.296C203.924 231.674 205.791 232.842 207.57 234.092L212.657 237.602C214.435 238.814 216.255 239.983 218.075 241.153L218.984 241.723C221.778 241.438 224.568 241.196 227.351 240.893C217.902 236.353 209.715 228.043 202.769 220.585C190.528 207.48 178.206 195.497 165.913 183.809C165.203 183.135 166.019 181.705 166.793 182.265C179.564 191.524 191.589 203.193 203.309 215.456C213.128 225.724 223.196 235.253 236.452 239.818C237.429 239.705 238.4 239.588 239.376 239.475C236.881 238.375 234.47 237.044 232.15 235.578C227.041 232.37 222.383 228.452 217.859 224.433C207.151 214.879 196.91 204.962 187.022 194.997C186.475 194.443 187.176 193.484 187.737 194.024C197.321 203.346 207.523 212.256 217.835 221.234C222.28 225.086 226.809 228.917 231.694 232.176C234.339 233.946 237.103 235.553 239.984 236.838C241.697 237.609 243.616 238.09 245.412 238.765C246.919 238.581 248.421 238.42 249.928 238.236C249.642 238.053 249.351 237.856 249.09 237.706C247.296 236.654 245.515 235.569 243.748 234.46C240.091 232.169 236.511 229.75 233.014 227.207C225.767 221.97 219.198 216.075 212.742 209.92C212.316 209.51 212.847 208.775 213.278 209.181C219.696 215.05 226.771 220.37 233.91 225.355C237.658 227.992 241.502 230.462 245.416 232.852C247.206 233.946 249.014 235.012 250.836 236.045C251.801 236.595 252.944 237.086 253.959 237.72C256.108 237.453 258.253 237.171 260.397 236.899C260.107 236.721 259.812 236.548 259.522 236.38C257.895 235.461 256.286 234.504 254.687 233.538C251.512 231.6 248.409 229.538 245.366 227.386C238.961 222.867 233.025 217.821 227.208 212.576C226.734 212.147 227.302 211.346 227.78 211.77C233.434 216.83 239.623 221.335 245.891 225.565C249.189 227.778 252.565 229.863 255.977 231.89C257.581 232.842 259.203 233.775 260.839 234.675C261.89 235.261 263.066 235.766 264.123 236.423C265.921 236.195 267.718 235.967 269.52 235.735C269.253 235.571 268.982 235.402 268.72 235.242L261.661 230.75L246.909 221.532C246.023 220.985 246.985 219.649 247.862 220.197C252.633 223.181 257.423 226.165 262.255 229.087L269.261 233.279C270.565 234.045 271.889 234.663 273.227 235.258L273.255 235.255C274.959 235.039 276.662 234.824 278.361 234.604L276.037 233.144C270.693 229.728 265.389 226.232 260.154 222.645C259.415 222.137 260.222 221.058 260.956 221.515L274.279 229.8L280.867 233.784L281.543 234.194C284.368 233.829 287.193 233.464 290.022 233.103L290.02 233.102C289.12 232.503 288.22 231.905 287.345 231.358C284.845 229.793 282.358 228.185 279.894 226.535C274.804 223.124 270.049 219.306 265.128 215.652C264.612 215.267 265.199 214.447 265.714 214.832C270.554 218.426 275.724 221.582 280.778 224.838C283.422 226.542 286.075 228.207 288.755 229.844C290.316 230.793 292.013 231.668 293.617 232.639C294.292 232.55 294.968 232.462 295.649 232.378C296.77 232.239 297.902 232.118 299.033 231.979C298.224 231.486 297.41 231.008 296.619 230.506C292.766 228.073 288.986 225.488 285.206 222.922C284.467 222.414 285.282 221.307 286.012 221.787C289.781 224.269 293.65 226.569 297.537 228.804L302.384 231.585C304.552 231.326 306.721 231.077 308.885 230.824C304.7 228.764 300.692 226.32 297.114 223.985C286.874 217.264 277.867 208.57 269.145 199.838C251.198 181.825 232.325 165.866 212.954 151.347C211.947 150.59 212.936 148.699 213.979 149.342C233.611 161.334 252.303 176.464 269.881 193.356C278.6 201.716 287.335 210.203 297.146 217.159C301.912 220.553 306.889 223.458 312.167 225.868C315.37 227.316 318.664 228.315 321.944 229.338C322.925 229.23 323.911 229.136 324.897 229.032C323.74 228.574 322.607 228.102 321.506 227.634C316.416 225.47 311.51 222.79 306.743 219.801C297.334 213.98 288.622 206.927 280.297 199.482C271.249 191.396 262.574 182.866 253.566 174.883C244.664 167.02 235.432 160.142 225.954 153.645C225.544 153.361 225.931 152.672 226.349 152.871C246.288 162.213 263.012 180.721 280.082 195.906C288.478 203.364 297.248 210.51 306.655 216.476C311.623 219.668 316.768 222.495 322.081 224.782C325.454 226.246 328.912 227.209 332.348 228.262C334.174 228.071 336 227.871 337.826 227.69C326.473 223.469 315.49 216.733 305.538 209.799C291.506 200.158 278.703 188.838 265.893 177.641C265.142 176.992 266.03 175.742 266.781 176.391C279.178 187.126 292.004 197.665 305.553 206.915C312.514 211.71 319.646 216.136 327.038 219.85C332.7 222.638 338.487 224.855 344.306 227.066C345.889 226.918 347.477 226.793 349.054 226.65C341.677 223.217 334.431 218.987 327.504 215.01C317.042 208.932 306.963 201.783 297.319 194.213C296.616 193.657 297.433 192.559 298.144 193.096C307.869 200.458 318.379 207.292 328.829 213.192C334.041 216.102 339.333 219.024 344.682 221.668C347.926 223.275 351.228 224.707 354.507 226.173C356.278 226.021 358.043 225.855 359.809 225.708C353.108 222.427 346.526 218.772 340.104 214.817C330.381 208.834 320.926 202.543 312.04 195.028C311.509 194.582 312.134 193.789 312.692 194.188C322.239 201.093 331.822 207.432 341.766 213.454C349.093 217.855 356.555 221.468 364.068 225.107L364.473 225.302C366.756 225.126 369.035 225.002 371.318 224.836C370.852 224.61 370.387 224.374 369.936 224.162C365.881 222.227 361.883 220.088 357.955 217.897C350.016 213.388 342.579 208.061 335.223 202.304C334.659 201.864 335.339 201.013 335.902 201.444C343.284 207.041 351.21 211.879 359.172 216.151C363.141 218.243 367.177 220.39 371.249 222.259C372.996 223.063 374.83 223.756 376.65 224.464C378.849 224.318 381.047 224.154 383.246 224.017C382.068 223.4 380.898 222.773 379.748 222.165C376.064 220.209 372.434 218.101 368.867 215.832C361.645 211.183 354.835 206.173 348.399 200.332C347.863 199.844 348.529 199.027 349.097 199.463C355.874 204.68 362.874 209.56 370.075 214.078C373.66 216.299 377.308 218.378 381.01 220.306C383.358 221.531 385.801 222.561 388.184 223.691C390.388 223.559 392.583 223.465 394.787 223.342C392.554 222.181 390.342 220.949 388.168 219.697C382.611 216.465 377.345 212.756 372.402 208.444C371.977 208.071 372.469 207.262 372.941 207.587C378.214 211.21 383.601 214.648 389.113 217.698C391.923 219.276 394.785 220.783 397.681 222.157C398.388 222.496 399.114 222.778 399.83 223.08C401.733 222.982 403.631 222.87 405.535 222.781C399.954 220.005 394.64 216.491 389.625 212.598C379.633 205.053 370.568 196.083 361.643 186.767C352.71 177.546 343.89 168.11 334.401 159.351C323.494 149.264 311.954 140.018 299.835 130.999C293.712 126.493 287.852 122.184 281.767 117.918C275.805 113.714 270.025 108.957 264.013 105.056C262.908 104.344 264.128 102.721 265.223 103.414C272.096 107.765 279.451 111.518 286.441 116.101C293.14 120.515 299.977 125.181 306.595 130.026C317.991 138.377 328.634 147.203 338.804 156.655C348.982 166.04 358.731 175.576 368.317 185.509C383.771 201.289 399.699 215.598 419.932 222.15C421.493 222.091 423.058 222.028 424.619 221.97C422.899 221.349 421.188 220.681 419.499 219.933C413.507 217.325 407.729 214.111 402.263 210.486C397.036 207.045 392.068 203.171 387.262 199.129C382.461 195.119 377.82 190.839 373.261 186.425C368.697 182.006 364.21 177.441 359.713 172.856C355.217 168.31 350.708 163.815 346.096 159.379C336.385 150.073 326.25 140.95 315.615 132.509C305.073 124.029 294.018 115.314 282.976 107.719C282.433 107.353 283.061 106.546 283.6 106.916C289.841 111.226 296.058 115.522 302.275 119.817L302.42 119.917C308.705 124.321 314.856 128.826 320.8 133.566C341.337 150.194 359.11 169.147 377.804 186.873C386.816 195.294 396.164 203.068 406.186 209.276C414.736 214.502 423.782 218.82 433.527 221.623C434.105 221.607 434.688 221.596 435.267 221.58L435.255 221.574C434.355 221.076 433.456 220.578 432.58 220.103C427.688 217.464 422.863 214.622 418.119 211.6C408.519 205.604 399.235 198.906 390.254 191.614C371.835 176.94 355.539 159.925 339.217 142.294C338.78 141.818 339.597 141.256 340.025 141.714C355.998 158.825 373.546 175.143 391.439 189.366C400.419 196.63 409.702 203.253 419.293 209.277C424.037 212.299 428.866 215.137 433.768 217.775C436.225 219.106 438.816 220.232 441.365 221.42C444.515 221.33 447.661 221.246 450.811 221.176C445.784 218.563 440.866 215.549 436.064 212.711C428.868 208.419 421.819 203.696 414.912 198.758C401.152 189.075 388.084 177.915 375.951 165.754C375.519 165.311 376.117 164.593 376.586 165.017C389.427 176.336 402.622 187.489 416.44 197.016C423.218 201.839 430.141 206.348 437.175 210.54C443.399 214.211 449.887 217.416 456.115 221.035C459.374 220.968 462.638 220.942 465.893 220.888C462.19 218.942 458.519 216.877 454.896 214.656C447.045 209.836 439.389 204.649 431.976 199.345C416.999 188.462 402.628 176.594 389.538 162.885C389.049 162.377 389.743 161.568 390.266 162.061C404.065 175.004 418.335 187.034 433.464 197.731C440.965 202.944 448.616 207.665 456.362 212.172C461.515 215.154 466.716 217.979 471.927 220.805C474.466 220.774 477.001 220.721 479.541 220.7C472.882 216.952 466.433 212.843 460.147 208.411C447.809 199.641 436.219 189.928 424.466 180.078L423.601 179.354C423.027 178.866 423.797 178.056 424.37 178.497C430.541 183.289 436.736 188.094 442.921 192.9C449.11 197.682 455.326 202.398 461.673 206.796C467.852 211.061 474.167 215.05 480.697 218.683C481.976 219.396 483.278 220.039 484.588 220.682C487.444 220.664 490.304 220.66 493.165 220.657L493.178 220.657C492.701 220.327 492.224 219.979 491.752 219.654C486.745 216.176 481.783 212.593 476.867 208.915C466.952 201.5 457.426 193.72 447.897 185.54C447.356 185.076 448.103 184.28 448.648 184.731C458.125 192.65 467.939 199.923 477.738 207.185L478.686 207.887C483.63 211.527 488.624 215.048 493.662 218.455C494.768 219.196 495.892 219.927 497.026 220.648C499.999 220.647 502.967 220.641 505.941 220.659C505.23 220.132 504.523 219.6 503.817 219.087C498.663 215.31 493.58 211.518 488.535 207.551C478.542 199.7 468.795 191.468 459.253 182.879C458.563 182.252 459.536 181.222 460.235 181.82C470.109 190.304 480.14 198.681 490.41 206.466C495.504 210.323 500.657 214.044 505.838 217.763C507.236 218.766 508.67 219.731 510.105 220.687C513.328 220.704 516.546 220.727 519.764 220.759C519.368 220.47 518.967 220.176 518.571 219.888C515.475 217.657 512.41 215.364 509.373 213.014C503.24 208.24 497.408 203.192 491.518 198.089C491.03 197.666 491.722 196.966 492.21 197.361C498.285 202.319 504.606 207.118 510.883 211.79C513.957 214.073 517.053 216.304 520.172 218.493C521.288 219.28 522.436 220.034 523.58 220.793C526.248 220.821 528.907 220.869 531.575 220.906C522.858 216.046 514.954 209.439 507.587 202.407C497.242 192.427 487.886 181.525 478.266 170.637C467.627 158.584 456.527 147.009 445.056 135.503C433.422 124.062 421.312 112.865 408.547 102.282C395.709 91.8237 382.611 81.0597 368.593 71.6354C367.677 71.0039 368.762 69.4634 369.705 70.0473C373.662 72.4875 377.571 74.9381 381.43 77.4226C385.261 79.964 389.051 82.5392 392.795 85.1529C400.273 90.3994 407.592 95.743 414.652 101.473C440.1 122.253 463.233 144.72 484.542 168.719C494.102 179.41 503.438 190.266 513.853 199.943C522.972 208.329 533.049 215.383 543.763 221.122L543.777 221.122C546.888 221.184 549.999 221.246 553.115 221.322C543.936 216.701 535.279 210.523 527.501 204.111C502.685 183.911 482.98 157.284 459.59 134.413C453.563 128.532 447.364 122.771 441.017 117.155C434.648 111.59 428.153 106.109 421.598 100.623C415.089 95.1181 408.155 90.0446 401.037 85.1628C393.928 80.262 386.688 75.4297 379.477 70.5968C378.91 70.2267 379.579 69.3105 380.16 69.638C396.486 79.2622 411.544 90.1484 426.072 101.605C452.736 122.263 475.329 146.5 497.569 170.673C508.456 182.632 519.656 194.247 532.198 204.015C538.136 208.656 544.352 212.873 550.88 216.43C554.484 218.393 558.166 220.044 561.898 221.557C564.529 221.623 567.164 221.685 569.795 221.761C563.649 219.038 557.797 215.103 552.455 211.51L552.064 211.247C542.503 204.874 533.475 197.545 524.777 189.787C515.707 181.753 507.044 173.152 498.584 164.284C490.096 155.491 481.81 146.374 473.526 137.168C473.05 136.636 473.792 135.855 474.296 136.368C482.55 144.77 490.828 153.204 499.092 161.616C507.327 170.018 515.653 178.259 524.322 185.98C540.667 200.633 559.142 216.045 579.935 222.073C581.097 222.112 582.255 222.155 583.418 222.185C570.83 215.677 558.99 206.945 548.073 198.048C532.366 185.209 517.7 170.989 503.108 156.434C502.59 155.917 503.356 155.159 503.883 155.638C511.377 162.479 518.891 169.338 526.391 176.193C533.885 183.015 541.448 189.718 549.289 195.969C557.01 202.105 564.929 208.053 573.233 213.218C578.695 216.617 584.327 219.58 590.027 222.395C591.449 222.443 592.87 222.491 594.287 222.534C585.735 216.956 577.515 210.58 569.583 204.204C558.929 195.561 549.096 186.24 539.494 176.245C539.062 175.802 539.731 175.145 540.172 175.569C550.164 185.283 560.828 194.49 571.639 203.035C580.677 210.124 590.094 216.405 599.545 222.7C602.572 222.797 605.603 222.889 608.635 222.99C606.731 221.63 604.814 220.284 602.933 218.881C597.053 214.516 591.282 209.961 585.648 205.196C574.429 195.751 563.979 185.458 553.746 174.699C553.127 174.057 554.105 173.079 554.729 173.716C565.175 184.512 576.426 194.433 587.866 203.841C593.555 208.52 599.349 213.041 605.256 217.359C607.952 219.315 610.666 221.243 613.398 223.143L613.419 223.143C616.265 223.238 619.111 223.334 621.957 223.438C614.591 217.847 607.517 211.657 600.626 205.626L600.248 205.295C589.657 195.983 579.927 185.958 570.136 175.662C569.713 175.218 570.392 174.551 570.819 174.99C580.66 185.158 591.303 194.77 601.919 203.912C610.009 210.845 618.49 217.14 626.848 223.611C629.677 223.712 632.502 223.817 635.331 223.918C634.333 223.151 633.349 222.371 632.394 221.655C629.334 219.348 626.333 216.951 623.429 214.415C617.519 209.265 612.212 203.633 606.942 197.761C606.519 197.289 607.202 196.627 607.634 197.07C613.074 202.727 619.062 208.026 625.07 212.958C628.039 215.398 631.044 217.782 634.122 220.051C636.007 221.43 638.087 222.693 640.034 224.095C641.936 224.162 643.833 224.233 645.735 224.3C637.618 218.863 630.441 211.424 624.005 203.847C611.93 189.573 600.059 175.134 587.436 161.219C574.398 146.986 560.928 133.04 546.906 119.542C532.959 105.976 518.455 92.8353 503.519 79.9522C496.237 73.6492 488.831 67.4203 481.387 61.1589L480.829 60.6896C473.205 54.2511 465.397 47.9761 457.367 41.9123C456.431 41.206 457.652 39.63 458.606 40.2984C467.632 46.5639 476.473 52.9364 485.151 59.4204C493.866 65.8755 502.414 72.4372 510.644 79.358C540.2 103.822 567.322 130.183 592.632 157.938C605.259 171.792 617.056 186.298 629.171 200.492C637.71 210.46 647.816 220.284 659.858 224.817C660.856 224.854 661.859 224.886 662.847 224.924C659.155 222.525 655.603 219.847 652.188 216.958C636.333 203.505 623.66 186.495 610.231 170.346C602.194 160.749 593.76 151.556 585.113 142.535C576.429 133.563 567.5 124.779 558.526 115.915C558.095 115.491 558.71 114.708 559.178 115.084C569.831 123.68 579.744 133.217 589.215 143.021C604.936 159.233 618.665 177.075 633.401 193.984C643.962 206.109 655.426 217.248 668.883 225.155C671.123 225.234 673.364 225.322 675.601 225.406C671.822 222.694 668.199 219.706 664.737 216.847C657.528 210.909 650.722 204.417 644.212 197.609C630.657 183.462 618.391 168.024 606.345 152.319C605.906 151.749 606.672 150.981 607.148 151.532C619.544 166.096 631.57 181.007 644.701 194.692C651.48 201.758 658.568 208.485 666.078 214.638C670.997 218.678 676.247 222.096 681.438 225.632C684.023 225.727 686.612 225.828 689.206 225.923C686.918 224.128 684.676 222.304 682.474 220.554C675.77 215.222 669.269 209.604 662.964 203.733C649.742 191.438 637.676 177.873 626.496 163.407C625.956 162.703 626.93 161.739 627.494 162.438C638.561 176.177 650.524 189.07 663.286 200.932C669.878 207.08 676.7 212.942 683.741 218.479C687.147 221.155 690.752 223.617 694.314 226.121C697.619 226.245 700.914 226.37 704.219 226.494C703.076 225.514 701.937 224.539 700.804 223.577C696.399 219.866 692.055 216.083 687.769 212.21C678.667 203.961 670.045 195.279 661.55 186.321C661.036 185.781 661.858 185.003 662.376 185.52C671.131 194.293 680.22 202.769 689.434 210.978C693.944 214.993 698.489 218.951 703.113 222.818C704.667 224.109 706.258 225.372 707.854 226.63C711.3 226.761 714.741 226.888 718.187 227.019C714.702 224.118 711.262 221.15 707.882 218.11C699.872 210.912 692.267 203.218 684.91 195.264C684.324 194.626 685.289 193.699 685.876 194.328C693.35 202.312 701.192 209.828 709.361 216.995C713.347 220.488 717.435 223.858 721.567 227.141C724.232 227.24 726.901 227.334 729.566 227.433C729.254 227.143 728.943 226.843 728.636 226.567C724.657 222.932 720.751 219.23 716.904 215.428C709.024 207.635 701.238 199.582 694.327 190.801C693.931 190.3 694.592 189.662 695.029 190.119C702.441 197.794 709.645 205.685 717.269 213.14C721.129 216.918 725.058 220.605 729.066 224.221C730.349 225.381 731.669 226.466 732.979 227.56C734.655 227.622 736.321 227.684 737.997 227.745L735.336 225.369C732.443 222.716 729.619 219.981 726.892 217.145C721.275 211.307 716.055 205.095 711.172 198.542C710.834 198.088 711.443 197.474 711.805 197.923C716.805 204.21 722.119 210.218 727.714 215.887C730.56 218.763 733.465 221.567 736.453 224.275C737.789 225.487 739.138 226.665 740.506 227.833C742.267 227.903 744.032 227.967 745.793 228.027C745.583 227.881 745.359 227.749 745.145 227.598C734.823 220.021 726.867 209.543 719.534 198.908C711.761 187.636 704.15 176.272 696.081 165.25C679.532 142.712 661.871 120.756 642.526 100.548C641.647 99.6292 643.07 98.2657 643.948 99.1754C654.477 110.144 664.819 121.183 674.746 132.643C691.976 152.459 707.299 173.689 722.492 195.181C731.439 207.785 742.401 221.192 755.899 228.105C745.705 220.069 737.577 208.964 729.559 198.648C714.98 179.444 700.387 160.237 685.813 141.038C685.427 140.538 686.124 139.851 686.52 140.352C700.839 158.549 715.154 176.741 729.478 194.942C735.551 202.742 741.71 210.78 748.48 217.866C752.187 221.774 756.199 225.365 760.578 228.47C762.517 228.508 764.451 228.541 766.389 228.56C763.494 226.494 760.727 224.257 758.111 222.045C752.385 217.145 747.347 211.819 742.301 206.079C732.068 194.357 723.228 181.524 714.36 168.649L713.36 167.197C712.973 166.631 713.73 165.882 714.127 166.449C723.151 179.173 732.255 191.873 742.51 203.501C747.852 209.499 753.099 215.137 759.134 220.242C762.826 223.36 766.773 226.003 770.807 228.564C771.847 228.567 772.891 228.557 773.93 228.551C772.44 227.403 770.988 226.236 769.593 225.163C765.016 221.525 760.67 217.696 756.574 213.597C752.304 209.324 748.503 204.928 744.638 200.186C740.825 195.456 737.276 190.501 734.089 185.256C733.831 184.842 734.458 184.383 734.742 184.759C738.395 189.482 742.108 194.162 745.96 198.716C749.755 203.262 753.527 207.611 757.705 211.778C761.997 216 766.564 220.061 771.372 223.755C773.578 225.434 775.979 226.968 778.357 228.535C780.36 228.515 782.363 228.458 784.362 228.415C781.35 226.163 778.452 223.754 775.653 221.329C770.416 216.872 765.659 211.954 761.044 206.868C760.66 206.443 761.259 205.81 761.653 206.217C766.27 210.973 771.277 215.43 776.388 219.654C779.037 221.87 781.756 224.043 784.538 226.064C785.602 226.847 786.698 227.588 787.79 228.334C790.287 228.272 792.783 228.172 795.279 228.072C793.302 226.548 791.366 224.972 789.482 223.39C784.744 219.459 780.326 215.283 776.108 210.801C775.666 210.33 776.321 209.612 776.776 210.059C781.088 214.308 785.627 218.177 790.358 221.99C792.996 224.122 795.761 226.025 798.55 227.933C800.186 227.854 801.826 227.771 803.466 227.678C801.45 226.108 799.463 224.509 797.544 222.858C793.158 219.109 789.259 214.795 785.32 210.581C784.906 210.128 785.528 209.405 785.946 209.853C789.831 213.97 794.208 217.7 798.549 221.295C800.729 223.116 802.965 224.898 805.257 226.632C805.653 226.93 806.068 227.209 806.473 227.488C808.014 227.392 809.551 227.301 811.087 227.192C797.245 218.832 787.448 205.337 778.687 191.647C772.779 182.456 766.882 173.284 760.988 164.116C755.045 155.011 749.743 146.034 742.776 137.043C742.109 136.143 743.332 134.92 744.018 135.819C746.06 138.541 748.249 141.265 750.206 143.96L755.762 152C759.541 157.37 763.319 162.749 767.106 168.138C774.107 178.131 780.824 188.553 788.253 198.523C792.093 203.694 796.248 208.624 800.872 213.008C796.388 208.362 792.349 203.322 788.614 197.975C776.588 180.877 766.127 162.737 754.255 146.535C753.839 145.969 754.557 145.146 754.968 145.717C760.82 153.7 766.727 161.423 772.404 169.837C777.566 177.49 782.519 185.438 787.953 193.03C793.582 200.946 799.646 208.478 806.825 215.015C810.171 218.012 813.767 220.78 817.633 223.16C819.546 224.299 821.549 225.239 823.571 226.15L823.994 226.114C822.183 224.926 820.395 223.704 818.668 222.43C813.717 218.673 809.114 214.458 804.916 210.225C800.596 205.783 796.69 201.074 793.164 196.123C789.624 191.139 786.44 185.833 783.572 180.333C783.308 179.82 783.963 179.351 784.245 179.845C790.259 190.374 797.678 200.114 806.155 208.639C812.756 215.239 820.097 220.685 827.942 225.675C829.173 225.544 830.399 225.409 831.625 225.273L831.664 225.269C830.054 224.228 828.458 223.163 826.917 222.068C822.386 218.881 818.098 215.606 814.105 211.755C810.16 207.988 806.452 204.032 802.997 199.785C799.532 195.51 796.336 191.042 793.457 186.445C793.064 185.827 793.908 185.218 794.301 185.808C797.362 190.359 800.645 194.708 804.192 198.85C807.71 202.907 811.501 206.776 815.604 210.446C819.591 213.996 823.752 217.27 828.178 220.364C830.552 222.012 833.026 223.422 835.527 224.832C837.175 224.626 838.816 224.378 840.468 224.158C840.058 223.874 839.639 223.6 839.233 223.321C835.958 221.093 832.781 218.803 829.72 216.42C823.373 211.284 817.614 205.929 812.201 199.909C811.557 199.197 812.428 198.013 813.081 198.725C818.467 204.525 824.266 209.78 830.515 214.74C833.667 217.181 836.93 219.527 840.332 221.747C841.395 222.456 842.48 223.103 843.565 223.731C844.489 223.605 845.418 223.493 846.338 223.353C847.327 223.206 848.33 222.999 849.324 222.839C848.82 222.529 848.292 222.252 847.801 221.927C844.538 219.822 841.514 217.439 838.493 214.938C838.12 214.635 838.532 214.043 838.9 214.333C841.938 216.729 845.174 218.633 848.498 220.503C849.644 221.144 850.814 221.761 851.983 222.378L852.371 222.311C854.435 221.952 856.496 221.594 858.564 221.178C858.365 221.088 858.157 221.007 857.957 220.917C855.006 219.61 852.104 217.944 849.288 216.324C848.502 215.864 848.936 214.454 849.754 214.908C852.603 216.495 855.524 217.93 858.497 219.166C859.474 219.584 860.474 219.979 861.469 220.371L861.759 220.486C862.898 220.243 864.036 220.009 865.179 219.752C862.913 219.066 860.699 218.22 858.557 217.165C842.517 209.201 833.743 191.179 819.618 182.316C818.78 181.787 819.342 180.224 820.19 180.753C833.783 189.16 843.336 204.608 858.311 212.433C863.7 215.245 869.59 216.712 875.598 217.231C875.907 217.15 876.216 217.078 876.529 216.991C873.839 216.046 871.208 215.011 868.673 213.837C862.672 211.008 857.152 207.257 852.026 203.24C851.395 202.725 852.02 201.683 852.65 202.15C857.833 205.964 863.706 209.501 869.683 212.048C872.691 213.363 875.791 214.555 878.982 215.603C879.397 215.73 879.819 215.834 880.245 215.939L880.395 215.976C882.039 215.526 883.675 215.06 885.316 214.594L885.874 214.435C884.16 214.068 882.463 213.664 880.798 213.197C876.143 211.867 871.591 209.748 867.361 207.544C866.833 207.258 867.219 206.262 867.746 206.52C872.005 208.541 876.556 210.353 881.164 211.445C883.513 212.025 885.912 212.496 888.342 212.886C889.017 213 889.696 213.081 890.385 213.153C891.535 212.81 892.667 212.459 893.813 212.113C893.332 212.056 892.842 212.037 892.361 211.971C888.884 211.432 885.439 210.388 882.1 209.474C881.527 209.311 881.711 208.362 882.288 208.52C885.541 209.38 888.984 210.051 892.352 210.311C894.02 210.448 895.707 210.575 897.402 210.665C897.774 210.681 898.151 210.683 898.532 210.69C900.59 210.057 902.638 209.416 904.681 208.769C903.132 208.969 901.554 209.093 899.883 209.055C891.359 209.041 883 207.618 875.041 205.25C858.295 200.178 843.375 191.096 829.193 181.938C814.987 172.748 801.493 163.422 786.758 156.796C779.939 153.743 772.852 151.43 766.313 147.539C760.949 144.364 756.176 140.039 751.778 135.236C751.12 134.538 750.561 133.834 749.851 133.114L747.7 130.898L743.45 126.402C740.626 123.399 737.769 120.439 734.702 117.756C728.141 111.998 720.579 107.539 712.45 104.619C704.226 101.664 695.726 100.455 686.954 101.025C678.417 101.58 670.088 102.955 661.559 100.777C644.198 96.2868 635.522 78.2019 621.069 68.452C604.969 57.6426 587.222 55.8361 568.205 58.3728C558.866 59.5791 549.774 59.8869 540.498 57.2861C531.733 54.7978 523.419 50.6026 515.219 46.4145C506.718 42.0393 498.155 38.0934 489.149 35.0687C480.166 32.0295 470.97 29.6719 461.035 28.7163C442.113 26.7021 422.465 28.5407 403.959 34.1347C394.564 37.0404 385.551 40.7196 377.053 45.4661C368.444 50.3183 360.453 56.2733 351.119 59.6059C340.955 63.3591 330.014 63.4579 319.332 64.4879C310.812 65.4761 302.334 67.1315 294.084 69.3658C276.77 74.1135 261.33 81.3563 247.982 90.6305C234.689 99.9206 223.544 111.323 215.01 124.823C210.727 131.612 206.624 138.657 199.986 142.453C193.866 145.952 187.018 147.108 180.919 150.194Z" fill="#100F0D"/>
<path d="M796.456 309.551C816.865 300.905 835.277 288.684 852.395 275.284C869.532 261.846 885.386 247.295 900.993 233.096C904.432 229.943 907.843 226.81 911.268 223.663C911.728 222.61 912.182 221.552 912.651 220.498C904.579 224.408 896.058 227.49 887.486 229.895C886.971 230.037 886.447 230.16 885.932 230.302C885.71 230.475 885.482 230.625 885.269 230.799C872.331 240.928 862.774 255.151 853.167 268.975C852.274 270.267 850.324 268.926 851.184 267.64C859.572 255.025 867.019 242.593 877.275 232.459C867.552 234.68 857.793 236.275 848.17 237.595C846.871 238.293 845.578 239.014 844.313 239.782C833.99 245.801 825.243 253.723 817.376 263.1C802.983 280.258 791.284 300.21 771.058 312.771C769.878 313.509 768.861 311.784 769.971 311.024C790.331 297.171 801.501 275.14 816.556 257.466C822.591 250.387 829.28 244.26 836.636 239.088C836.082 239.156 835.519 239.223 834.97 239.295C820.243 241.104 805.515 242.146 790.81 242.657C786.645 244.29 782.576 246.246 778.629 248.688C767.867 255.309 759.06 264.789 750.145 273.998C745.598 278.63 741.069 283.252 736.545 287.869L736.416 288.001C731.871 292.572 727.239 297.051 722.511 301.447C703.607 319.045 683.383 334.128 662.454 348.486C661.483 349.149 660.689 347.48 661.631 346.818C674.009 338.106 685.739 328.272 697.33 318.277C707.412 309.544 717.315 300.583 726.774 291.038C735.92 281.81 744.326 272.046 753.767 262.567C761.004 255.131 768.665 248.204 777.31 242.97C770.603 243.043 763.894 243.041 757.198 242.931C748.528 242.713 740.049 242.393 731.617 242.043C719.772 241.567 707.931 241.057 696.094 240.534C694.029 241.519 691.984 242.589 689.971 243.827C682.891 248.184 676.365 253.453 670.054 258.966C658.188 269.324 646.851 280.293 635.017 290.608C622.39 301.738 609.546 312.623 596.503 322.948C583.908 332.807 571.492 342.748 558.933 352.291C552.353 357.222 545.804 362.043 539.224 366.753L535.234 369.573C529.989 373.28 524.744 376.987 519.487 380.707C518.452 381.446 517.56 379.61 518.557 378.852C525.728 373.327 533.039 367.799 540.258 362.089C547.515 356.37 554.775 350.636 562.018 344.921C588.183 324.228 614.259 302.38 639.537 279.366C651.289 268.705 662.584 257.252 675.029 247.414C678.134 244.955 681.49 242.425 685.001 240.043C658.233 238.834 631.498 237.583 604.779 236.467C600.039 238.027 595.424 239.984 590.898 242.626C582.446 247.546 574.767 253.81 567.318 260.248C538.649 285.002 509.994 308.81 481 331.073C451.281 353.857 421.585 374.402 393.023 394.44C392.076 395.107 391.087 393.381 392.034 392.695C407.961 381.176 424.099 368.891 440.47 356.489C470.017 334.103 500.234 310.561 529.947 285.298C544.059 273.344 557.659 260.426 572.223 248.769C577.731 244.33 583.944 239.646 590.584 235.891C560.435 234.696 530.313 233.731 500.225 233.279C494.817 234.103 489.492 235.359 484.217 237.455C475.135 241.004 466.825 246.439 459.163 252.627C445.371 263.615 433.578 277.237 421.15 289.445C409.232 301.507 396.991 312.686 384.829 323.756C372.401 334.746 360.049 345.532 347.548 355.427C341.362 360.524 335.148 365.41 328.896 370.066C322.631 374.736 315.816 379.422 308.892 383.846C308.018 384.399 307.149 382.76 307.97 382.166C323.767 370.725 337.258 359.234 351.561 346.938C376.719 325.23 402.073 301.801 426.571 276.182C432.728 269.811 438.863 263.261 445.334 257.044C451.815 250.921 458.623 245.148 466.074 240.224C469.99 237.651 474.312 235.173 478.863 233.052C449.551 232.867 420.26 233.264 390.994 234.461C382.812 238.275 375.258 243.431 368.369 249.412C359.002 257.633 350.895 267.316 342.666 276.465C334.025 286.253 325.285 295.539 315.856 303.94C295.625 322.062 272.537 337.168 247.191 351.828C245.786 352.645 244.423 350.235 245.775 349.385C260.189 340.37 273.885 331.228 286.815 321.616C298.103 313.241 308.789 304.359 318.684 294.764C327.935 285.886 336.318 275.676 345.051 265.801C354.624 254.843 365.291 243.026 377.834 235.073C373.299 235.298 368.758 235.498 364.219 235.765C340.762 237.197 317.403 239.268 293.952 241.711C287.339 244.69 281.033 248.435 275.085 252.727C257.663 265.3 242.613 281.309 224.525 294.154C205.609 307.541 183.9 318.057 159.402 324.256C157.931 324.614 157.267 322.609 158.707 322.167C172.94 317.676 186.178 311.822 198.537 305.067C219.253 293.762 236.038 278.712 252.845 263.813C261.1 256.46 269.676 249.158 278.963 243.333C277.132 243.538 275.31 243.724 273.48 243.928C244.492 247.1 215.342 250.2 186.048 251.618C175.174 254.449 165.931 262.005 156 267.866C144.294 274.786 131.267 279.606 117.224 281.807C115.761 282.052 115.293 279.958 116.73 279.615C131.389 276.236 144.918 270.357 156.863 262.373C162.088 258.88 167.228 255.13 172.618 252.137C151.072 252.611 129.48 251.49 108.296 248.287C106.073 248.586 103.847 249.019 101.577 249.697C98.6603 250.629 95.7514 251.642 92.7818 252.478C89.8083 253.337 86.7756 254.074 83.6691 254.187C82.4622 254.244 82.276 252.404 83.4804 252.261C86.8628 251.897 90.0694 250.856 93.1953 249.682C95.1571 248.911 97.1208 248.142 99.0841 247.372C98.3228 247.147 97.5863 246.79 96.876 246.356C96.2674 246.241 95.6545 246.15 95.0491 246.029C79.9613 243.061 64.9554 239.534 50.6265 234.214C47.2879 232.977 43.9901 231.641 40.7368 230.219C50.4663 237.068 60.4543 244.01 70.3866 251.645C85.0369 262.998 98.0336 275.879 109.281 291.666C114.654 299.216 119.867 306.797 126.366 313.713C129.747 317.28 133.483 320.698 137.444 323.872C141.357 326.991 145.568 329.962 149.878 332.64C167.548 343.622 186.74 349.098 206.59 353.371C216.123 355.416 224.729 358.416 232.799 363.401C240.484 368.154 247.251 374.111 254.314 379.54C269.424 391.206 286.85 398.555 304.132 400.874C312.786 402.009 320.997 401.841 328.874 400.494C337.442 399.147 345.686 396.537 354.403 396.791C362.158 397.154 369.408 399.836 376.448 403.13C383.58 406.548 390.546 410.628 397.706 413.557C405.953 416.949 414.454 418.196 422.879 417.901C431.361 417.699 440.028 416.309 448.536 414.488C456.367 412.949 463.805 410.791 471.275 407.335C478.502 404.034 485.737 400.361 493.269 397.674C500.916 394.897 509.103 393.755 517.216 394.407C526.15 395.119 535.097 397.801 543.965 399.723C561.36 403.554 579.487 402.413 596.435 394.553C611.616 387.514 624.255 375.01 640.067 368.715C657.39 361.789 676.681 365.08 694.901 360.743C703.794 358.628 712.38 355.498 720.693 351.404C724.831 349.358 728.87 347.078 732.774 344.575C734.725 343.324 736.643 342.012 738.531 340.653L741.332 338.567C742.269 337.862 743.403 337.134 744.409 336.395C752.084 330.94 759.328 325.042 768.024 321.058C772.659 318.908 777.42 317 782.17 315.2C786.96 313.32 791.765 311.491 796.456 309.551Z" fill="#100F0D"/>
</g>
<defs>
<clipPath id="clip0_19_3474">
<rect width="951" height="443" fill="white"/>
</clipPath>
</defs>
</svg>
