<svg class="svgLogo" width="864" height="754" viewBox="0 0 864 754" fill="none" xmlns="http://www.w3.org/2000/svg">
<style>
@keyframes spin {
  0% {
    filter: drop-shadow(2px 5px 3px #FFCF00);
  }
  70% {
    filter: drop-shadow(2px 5px 3px #FFCF00);
  }
  100% {
    filter: drop-shadow(2px 5px 0 #FFCF00);
  }
}
 .svgLogo {
  animation: spin 5s linear infinite;
   filter: drop-shadow(5px 5px 0 #FFCF00);
   animation-direction: alternate;
 }
</style>
<path d="M288.501 269.281C334.501 205.781 339.001 153.281 310.001 131.781C281.001 110.281 218.001 159.781 169.501 237.281C121.001 314.781 91.5008 393.781 130.501 417.281C169.501 440.781 230.001 413.781 276.001 334.781C265.167 354.614 248.301 396.581 267.501 405.781C291.501 417.281 340.999 334 316.5 304.281C293.281 276.114 266.5 332.5 296.5 330C326.5 327.5 406.501 288.781 441.501 210.281C476.501 131.781 448.501 92.2807 428.001 140.281C407.501 188.281 249.501 546.781 270.501 555.281C291.501 563.781 421.178 333 397 311.5C372.822 290 362.999 348.109 384.999 342C406.999 335.891 489 280.78 526 202.78C563 124.78 558 78.7804 526 131.78C494 184.78 291.001 656.28 302.001 666.28C313.001 676.28 495.5 401.781 480.5 334.781C465.5 267.781 432.501 358.781 468.001 349.281C503.501 339.781 532.055 315.683 565 288.281C599 260 638.999 203.719 604.5 195.5C572.499 187.876 535.001 227.281 539.001 288.281C543.001 349.281 582.501 373.781 623.501 349.281C664.501 324.781 694.001 285.281 670.501 273.781C647.001 262.281 577.501 328.281 589.501 386.781C601.501 445.281 651.501 468.281 725.501 405.781" stroke="black" stroke-width="10" stroke-linecap="round"/>
<path d="M487.865 492.271C464.865 478.271 433.351 508.21 449.365 529.99C461.129 545.99 487.365 556.271 532.865 478.271C578.365 400.271 562.865 375.771 537.865 410.271C512.865 444.771 480.865 531.271 505.365 541.271C524.965 549.271 562.365 507.657 573.365 487.99C564.699 508.657 551.765 549.99 569.365 549.99C591.365 549.99 629.365 514.771 612.365 483.271C616.865 492.771 634.165 506.071 667.365 483.271C648.199 510.271 622.235 564.062 667.365 573.99C743.364 590.71 746.365 511.49 701.865 529.99" stroke="black" stroke-width="10" stroke-linecap="round"/>
<path d="M240 543.5C155 585 42.5007 566.462 42.5 497C42.4995 443.5 114.002 393.781 394.502 532.281C675.002 670.781 803.002 578.501 803.002 525.281C803.002 469.628 747.002 467.781 698.002 488.281" stroke="black" stroke-width="10" stroke-linecap="round"/>
<circle cx="581.5" cy="468.5" r="9.5" fill="black"/>
</svg>
